<?xml version="1.0" encoding="utf-8"?>
<!-- Generator: Adobe Illustrator 27.5.0, SVG Export Plug-In . SVG Version: 6.00 Build 0)  -->
<svg version="1.1" xmlns="http://www.w3.org/2000/svg" xmlns:xlink="http://www.w3.org/1999/xlink" x="0px" y="0px"
	 viewBox="0 0 500 500" style="enable-background:new 0 0 500 500;" xml:space="preserve">
<g id="BACKGROUND">
	<rect style="fill:#FFFFFF;" width="500" height="500"/>
</g>
<g id="OBJECTS">
	<g>
		<path style="fill:#EA6227;" d="M323.531,64.698c-4.543-5.828-11.27-9.343-20.778-9.343c-15.657,0-34.591,21.182-43.897,32.966
			c-9.315-11.784-28.249-32.966-43.897-32.966c-21.678,0-28.845,18.199-28.845,40.648c0,22.449,7.168,40.648,28.845,40.648
			c15.648,0,34.581-21.191,43.897-32.975c1.248,1.579,2.671,3.331,4.24,5.176c5.663,6.681,13.188,14.62,21.099,20.301
			c6.186,4.442,12.61,7.498,18.557,7.498c21.668,0,28.845-18.199,28.845-40.648C331.599,83.411,329.341,72.159,323.531,64.698z
			 M221.467,121.159c-6.47,0-10.903-2.469-13.794-6.516c0-0.009-0.009-0.009-0.009-0.018c-3.286-4.598-4.57-11.243-4.57-18.621
			c0-13.895,4.561-25.156,18.374-25.156c6.672,0,14.262,5.855,20.338,11.922c6.525,6.498,11.298,13.234,11.298,13.234
			S235.279,121.159,221.467,121.159z M296.246,121.159c-9.022,0-19.75-10.729-26.111-18.172c-3.377-3.956-5.525-6.984-5.525-6.984
			s17.823-25.156,31.635-25.156c13.803,0,18.374,11.261,18.374,25.156S310.05,121.159,296.246,121.159z"/>
		<path style="fill:#C68D1C;" d="M270.136,102.987c-1.872,0.083-3.726,0.89-5.048,2.23c-0.982,0.991-1.67,2.267-1.992,3.634
			c-1.569-1.845-2.992-3.598-4.24-5.176l5.754-7.673C264.611,96.003,266.758,99.032,270.136,102.987z"/>
		<path style="fill:#C68D1C;" d="M331.599,96.003c0,22.449-7.177,40.648-28.845,40.648c-5.947,0-12.371-3.056-18.557-7.498
			c3.754,1.744,7.783,2.863,11.913,3.102c5.635,0.312,11.435-1.11,16.024-4.396c4.414-3.157,7.535-7.874,9.536-12.922
			c2.01-5.038,2.992-10.426,3.781-15.795c1.046-7.039,1.79-14.17,1.175-21.265c-0.395-4.506-1.367-9.012-3.093-13.179
			C329.341,72.159,331.599,83.411,331.599,96.003z"/>
		<path style="fill:#C68D1C;" d="M241.804,82.769c-6.076-6.066-13.666-11.922-20.338-11.922c-13.812,0-18.374,11.261-18.374,25.156
			c0,7.379,1.285,14.023,4.57,18.621c-7.636-8.517-11.013-20.815-8.499-32.003c1.239-5.553,4.075-11.059,8.976-13.959
			c3.212-1.9,7.094-2.515,10.811-2.083c3.708,0.44,7.25,1.891,10.426,3.855C234.389,73.527,238.5,77.868,241.804,82.769z"/>
		<g>
			<path style="fill:#FFFFFF;" d="M194.6,68.397c-0.225,0.41-0.441,0.847-0.45,1.315c-0.009,0.468,0.25,0.973,0.699,1.102
				c0.611,0.175,1.166-0.37,1.596-0.837c1.683-1.824,3.832-3.215,6.185-4.004c1.297-0.435,2.655-0.691,3.917-1.218
				c1.262-0.528,2.464-1.389,3.002-2.646c0.453-1.058,0.437-2.672-0.675-3.329c-2.036-1.203-4.587,0.568-6.297,1.625
				C199.361,62.391,196.436,65.058,194.6,68.397z"/>
			<path style="fill:#FFFFFF;" d="M190.991,77.876c-0.052,0.33-0.103,0.67-0.028,0.996s0.308,0.638,0.635,0.704
				c0.288,0.058,0.588-0.087,0.791-0.3c0.203-0.213,0.327-0.487,0.449-0.755c0.433-0.96,0.868-1.925,1.148-2.94
				c0.151-0.547,0.253-1.141,0.054-1.672c-0.163-0.434-0.67-0.883-1.162-0.853c-0.542,0.033-0.768,0.56-0.957,0.997
				C191.399,75.261,191.194,76.583,190.991,77.876z"/>
		</g>
		<g>
			<path style="fill:#FFFFFF;" d="M301.749,58.416c0.371-0.208,0.806-0.286,1.231-0.331c2.631-0.279,5.643,0.232,8.114,1.153
				c2.253,0.84,4.328,2.482,5.109,4.757c0.219,0.637,0.316,1.39-0.064,1.946c-0.443,0.648-1.387,0.771-2.129,0.513
				c-1.029-0.358-1.818-1.238-2.679-1.872c-2.003-1.476-4.3-2.548-6.719-3.129c-0.846-0.203-1.723-0.325-2.522-0.688
				c-0.97-0.441-1.615-1.515-0.454-2.281C301.673,58.46,301.711,58.437,301.749,58.416z"/>
			<path style="fill:#FFFFFF;" d="M294.263,59.712c0.814-0.796,2.553-1.213,3.655-1.078c0.759,0.093,1.825,0.86,1.244,1.722
				c-0.294,0.437-0.9,0.493-1.425,0.538c-0.595,0.051-1.187,0.144-1.77,0.276c-0.431,0.098-0.898,0.315-1.341,0.338
				c-0.568,0.03-0.854-0.414-0.798-0.941C293.864,60.226,294.025,59.944,294.263,59.712z"/>
		</g>
	</g>
	<g>
		<g>
			<path style="fill:#4242CC;" d="M470.991,426.179c0,7.892-21.038,17.244-49.846,17.244c-22.052,0-42.274-5.489-50.533-11.592
				c-0.012,0-0.012-0.014-0.012-0.014c-2.516-1.87-3.926-3.796-3.926-5.639c0-7.878,23.345-11.291,52.152-11.291
				c15.272,0,29.006,0.956,38.535,3.031C465.83,419.762,470.991,422.465,470.991,426.179z"/>
			<path style="fill:#2F2FC1;" d="M470.991,426.179c0,7.892-21.038,17.244-49.846,17.244c-22.052,0-42.274-5.489-50.533-11.592
				c29.099,8.806,60.516,9.544,88.462-3.181c1.177-0.533,2.376-1.12,3.285-2.144c0.897-1.024,1.456-2.621,1.037-4.014
				c-0.408-1.379-1.608-2.198-2.738-2.84c-1.083-0.614-2.178-1.201-3.297-1.734C465.83,419.762,470.991,422.465,470.991,426.179z"/>
			<path style="fill:#FFFFFF;" d="M393.121,419.016c0.951-0.089,1.934-0.165,2.833,0.208c0.899,0.373,1.696,1.318,1.696,2.436
				c0,1.373-1.076,2.262-2.107,2.62c-3.057,1.06-6.64,0.751-9.794,0.779c-3.354,0.03-6.73,0.068-10.04,0.782
				c-0.953,0.206-3.286,1.173-4.003,0.033c-0.356-0.566-0.151-1.276,0.261-1.717c0.692-0.741,1.686-1.155,2.562-1.496
				c2.537-0.989,5.153-1.5,7.776-2.066C385.881,419.825,389.499,419.357,393.121,419.016z"/>
		</g>
		<g>
			<path style="fill:#4242CC;" d="M470.991,367.808c0,7.892-21.038,17.244-49.846,17.244c-22.052,0-42.274-5.489-50.533-11.592
				c-0.012,0-0.012-0.014-0.012-0.014c-2.516-1.871-3.926-3.796-3.926-5.639c0-7.878,23.345-11.291,52.152-11.291
				c15.272,0,29.006,0.956,38.535,3.031C465.83,361.391,470.991,364.094,470.991,367.808z"/>
			<path style="fill:#2F2FC1;" d="M470.991,367.808c0,7.892-21.038,17.244-49.846,17.244c-22.052,0-42.274-5.489-50.533-11.592
				c29.099,8.806,60.516,9.544,88.462-3.181c1.177-0.533,2.376-1.12,3.285-2.144c0.897-1.024,1.456-2.621,1.037-4.014
				c-0.408-1.379-1.608-2.198-2.738-2.84c-1.083-0.615-2.178-1.201-3.297-1.734C465.83,361.391,470.991,364.094,470.991,367.808z"/>
			<path style="fill:#FFFFFF;" d="M393.121,360.646c0.951-0.089,1.934-0.165,2.833,0.208c0.899,0.373,1.696,1.319,1.696,2.437
				c0,1.373-1.076,2.262-2.107,2.62c-3.057,1.06-6.64,0.751-9.794,0.779c-3.354,0.03-6.73,0.068-10.04,0.782
				c-0.953,0.206-3.286,1.173-4.003,0.033c-0.356-0.566-0.151-1.277,0.261-1.717c0.692-0.741,1.686-1.155,2.562-1.496
				c2.537-0.989,5.153-1.5,7.776-2.066C385.881,361.454,389.499,360.986,393.121,360.646z"/>
		</g>
	</g>
	<g>
		<g>
			<path style="fill:#F2A51A;" d="M437.077,60.792v0.12c-0.366,7.5-5.719,15.04-14.487,17.38c-9.406,2.51-19.072-1.94-22.274-9.26
				c-0.638-1.46-1.028-3.03-1.099-4.68c-0.662-14.53,23.55-20.97,33.594-13.24C435.565,53.222,437.266,56.412,437.077,60.792z"/>
			<path style="fill:#FFCB4A;" d="M437.077,60.792v0.12c-0.366,7.5-5.719,15.04-14.487,17.38c-9.406,2.51-19.072-1.94-22.274-9.26
				c3.545,3.31,8.638,5.45,13.92,5.61c7.409,0.24,14.794-3.41,18.209-8.98c2.73-4.47,2.777-9.98,0.366-14.55
				C435.565,53.222,437.266,56.412,437.077,60.792z"/>
			<g>
				<path style="fill:#FFFFFF;" d="M407.581,55.021c-0.377,0.285-0.752,0.596-0.932,0.995c-0.18,0.399-0.112,0.91,0.288,1.172
					c0.535,0.351,1.303,0.105,1.921-0.128c3.047-1.148,6.405-1.699,9.738-1.6c1.527,0.045,3.366,0.107,4.225-0.963
					c0.902-1.123,0.002-2.711-1.228-3.387c-1.164-0.639-2.92-0.276-4.207-0.085C413.768,51.561,410.323,52.948,407.581,55.021z"/>
				<path style="fill:#FFFFFF;" d="M402.324,61.25c-0.073,0.325-0.107,0.668,0.025,0.979c0.133,0.311,0.47,0.578,0.86,0.58
					c0.348,0.001,0.649-0.198,0.895-0.407c0.775-0.658,1.31-1.516,1.514-2.429c0.191-0.854-0.335-1.949-1.51-1.388
					C403.1,59.067,402.528,60.347,402.324,61.25z"/>
			</g>
		</g>
		<g>
			<path style="fill:#F2A51A;" d="M470.991,95.323c0,5.78-21.341,12.63-50.563,12.63c-22.369,0-42.882-4.02-51.26-8.49
				c-0.012,0-0.012-0.01-0.012-0.01c-2.552-1.37-3.982-2.78-3.982-4.13c0-5.77,23.68-8.27,52.902-8.27
				c15.491,0,29.423,0.7,39.089,2.22C465.756,90.622,470.991,92.602,470.991,95.323z"/>
			<path style="fill:#FFCB4A;" d="M470.991,95.323c0,5.78-21.341,12.63-50.563,12.63c-22.369,0-42.882-4.02-51.26-8.49
				c29.517,6.45,61.387,6.99,89.734-2.33c1.194-0.39,2.411-0.82,3.332-1.57c0.91-0.75,1.477-1.92,1.052-2.94
				c-0.414-1.01-1.631-1.61-2.777-2.08c-1.099-0.45-2.21-0.88-3.344-1.27C465.756,90.622,470.991,92.602,470.991,95.323z"/>
			<path style="fill:#FFFFFF;" d="M392.001,90.076c0.964-0.065,1.962-0.121,2.874,0.152c0.912,0.273,1.72,0.966,1.72,1.785
				c0,1.006-1.091,1.657-2.137,1.919c-3.101,0.776-6.736,0.55-9.935,0.571c-3.403,0.022-6.827,0.05-10.184,0.573
				c-0.967,0.151-3.333,0.859-4.06,0.024c-0.361-0.415-0.153-0.935,0.265-1.258c0.702-0.543,1.71-0.846,2.599-1.096
				c2.574-0.725,5.227-1.099,7.888-1.513C384.657,90.669,388.327,90.326,392.001,90.076z"/>
		</g>
		<g>
			<path style="fill:#F2A51A;" d="M436.392,133.662c-0.024,0.03-0.035,0.07-0.059,0.1c-3.427,6.93-11.533,12.42-20.714,12.04
				c-9.335-0.4-16.319-6.69-17.028-13.99c-0.201-1.95,0.059-3.96,0.827-5.96c4.502-11.63,23.149-12.71,32.685-6.68
				C437.018,122.272,439.512,127.262,436.392,133.662z"/>
			<path style="fill:#FFCB4A;" d="M436.392,133.662c-0.024,0.03-0.035,0.07-0.059,0.1c-3.427,6.93-11.533,12.42-20.714,12.04
				c-9.335-0.4-16.319-6.69-17.028-13.99c1.453,2.27,3.58,4.24,6.145,5.66c3.628,2,8.106,2.88,12.407,2.44
				c3.19-0.33,6.251-1.37,8.945-2.86c4.006-2.23,7.267-5.64,8.153-9.63c0.626-2.84-0.142-5.95-2.139-8.25
				C437.018,122.272,439.512,127.262,436.392,133.662z"/>
			<path style="fill:#FFFFFF;" d="M409.096,120.226c1.978-0.921,4.193-1.431,6.425-1.722c1.114-0.145,2.312-0.228,3.316,0.206
				s1.658,1.57,1.064,2.381c-0.295,0.402-0.827,0.643-1.371,0.751c-0.544,0.109-1.109,0.102-1.668,0.116
				c-3.545,0.085-7.056,1.022-10.018,2.673c-0.667,0.372-1.703,0.842-2.257,0.05c-0.398-0.569,0.237-1.178,0.629-1.632
				C406.23,121.873,407.593,120.926,409.096,120.226z"/>
		</g>
	</g>
	<g>
		<path style="fill:#F2A51A;" d="M164.522,204.838c-0.01,0.239-0.02,0.488-0.05,0.727c-0.66,5.851-4.97,9.878-10.33,9.857
			c-3.33-0.011-6.7,0.271-10.03,0.358c-6.7,0.152-13.41,0.228-20.11,0.163c-2.78-0.033-34.78-1.661-35.9-2.052
			c-0.02-0.011-0.03-0.011-0.03-0.022c-1.01,6.307-2.24,12.571-3.66,18.845c-4.51,19.952-10.9,40.154-18.28,63.32l-0.03,0.119
			c-1.06,4.179-5.05,6.633-8.9,5.482c-2.66-0.803-4.56-3.126-5.13-5.862l-0.23-1.118l-7.98-38.862
			c-5.08,0.868-20.19-1.227-20.19-6.372c0-9.227,28.48-7.425,30.47-1.824l0.11,0.423l5.11,18.715c0.52-2.757,1.07-5.493,1.66-8.228
			c3.65-17.141,8.73-33.826,14.46-50.261c1.13-3.213,2.69-6.405,5.22-8.478c4.29-3.539,10.02-3.115,15.09-3.669
			c5.99-0.651,11.97-1.096,17.99-1.313c8.72-0.304,17.45-0.261,26.17,0.076c3.84,0.152,7.67,0.434,11.5,0.597
			c1.89,0.076,3.86-0.043,5.76,0.239c1.26,0.185,2.49,0.554,3.63,1.292C163.362,198.639,164.652,201.722,164.522,204.838z"/>
		<path style="fill:#FFCB4A;" d="M164.522,204.838c-0.01,0.239-0.02,0.488-0.05,0.727c-0.66,5.851-4.97,9.878-10.33,9.857
			c-3.33-0.011-6.7,0.271-10.03,0.358c-6.7,0.152-13.41,0.228-20.11,0.163c-2.78-0.033-34.78-1.661-35.9-2.052
			c-0.32-2.367-1.31-4.646-2.74-6.481c22.55,2.584,45.15,4.255,67.79,2.942c2.8-0.163,5.71-0.402,8.16-1.878
			C162.672,207.66,163.852,206.346,164.522,204.838z"/>
		<path style="fill:#FFCB4A;" d="M84.412,232.714c-4.51,19.952-10.9,40.154-18.28,63.32l-0.03,0.119
			c-1.06,4.179-5.05,6.633-8.9,5.482c-2.66-0.803-4.56-3.126-5.13-5.862l-0.23-1.118c0.94,1.693,2.42,2.942,4.2,2.92
			c1.57-0.022,3.02-1.053,4.01-2.366c1-1.324,1.61-2.931,2.21-4.505C69.642,271.37,77.032,252.048,84.412,232.714z"/>
		<path style="fill:#FFFFFF;" d="M28.871,246.067c2.977-0.772,6.056-1.315,9.161-1.505c0.958-0.059,1.969-0.076,2.799,0.256
			c0.83,0.332,1.384,1.126,0.967,1.788c-0.249,0.396-0.787,0.662-1.345,0.785c-0.557,0.122-1.14,0.121-1.713,0.118
			c-2.638-0.012-5.277-0.023-7.915-0.035c-0.761-0.003-2.618,0.259-3.257-0.062C26.58,246.916,28.31,246.213,28.871,246.067z"/>
		<g>
			<path style="fill:#FFFFFF;" d="M105.035,198.185c5.759-1.16,22.275-2.094,24.203-0.786c1.087,0.682,1.697,2.424,0.867,3.447
				c-0.612,0.755-1.665,0.791-2.591,0.768c-4.865-0.121-9.729-0.289-14.591-0.507c-2.471-0.111-4.941-0.234-7.411-0.371
				c-0.673-0.037-2.303,0.116-2.549-0.879C102.73,198.92,103.782,198.437,105.035,198.185z"/>
			<path style="fill:#FFFFFF;" d="M95.844,200.711c-0.197-0.019-0.4-0.044-0.571-0.153c-0.171-0.108-0.3-0.323-0.258-0.533
				c0.048-0.241,0.284-0.372,0.496-0.459c0.96-0.397,1.986-0.607,3.013-0.616c0.45-0.004,0.927,0.04,1.293,0.324
				c0.273,0.212,0.5,0.658,0.396,1.03c-0.131,0.471-0.686,0.38-1.066,0.415C98.049,200.822,96.943,200.819,95.844,200.711z"/>
		</g>
	</g>
	<g>
		<g>
			<path style="fill:#4242CC;" d="M241.605,299.21c-1.54,2.57-4.1,4.5-6.67,5.44c-2.58,0.94-5.16,1.11-7.6,0.81
				c-2.45-0.3-4.82-1.11-7.02-2.5c-1.43-0.92-2.58-1.93-3.56-3.01c-0.02-0.01-0.03-0.02-0.04-0.04c-0.59-0.66-1.12-1.34-1.62-2.05
				c-1.31-1.89-2.25-3.89-2.94-5.86c-0.68-1.97-1.12-3.91-1.41-5.81c-0.31-1.88-0.45-3.79-0.52-5.5c-0.08-1.72-0.11-3.36-0.16-4.89
				c-0.09-3.05-0.29-5.71-0.88-7.82c-0.58-2.15-1.6-4.3-2.9-6.19c-1.32-1.87-2.9-3.53-4.6-4.64c-1.69-1.18-3.44-1.76-5.04-1.95
				l-0.12-0.02c-4.65-0.56-7.96-4.78-7.39-9.43c0.54-4.45,4.46-7.67,8.87-7.44c3.08,0.51,7.19-1.06,9.7-3.99
				c0.63-0.72,1.21-1.48,1.61-2.31c0.47-0.81,0.73-1.65,0.99-2.53c0.45-1.88,0.48-4.25,0.3-6.99c-0.2-2.74-0.63-5.85-0.72-9.4
				c-0.09-3.5,0.16-7.41,1.63-11.52c0.75-2.05,1.77-4.02,3.44-6.04c1.61-1.91,3.51-3.42,5.69-4.54c2.17-1.13,4.64-1.91,7.44-2.02
				c2.79-0.11,5.97,0.63,8.62,2.34c3.44,2.35,4.32,7.05,1.96,10.49c-1.77,2.58-5.17,3.91-8.21,3.02c-1.58-0.47-2.8-0.96-3.82-0.65
				c-0.75,0.22-1.4,0.89-2,2.33c-0.65,1.54-0.89,3.74-0.83,6.23c0.06,2.46,0.5,5.31,0.8,8.56c0.33,3.23,0.55,6.94-0.16,10.97
				c-0.74,4.16-2.54,8.06-4.98,11.34c-1.17,1.55-2.48,2.98-3.92,4.28c0,0.01,0,0.01-0.01,0.01c1.55,1.75,2.9,3.63,4.06,5.59
				c2.04,3.49,3.51,7.26,4.29,11.3c0.77,4.09,0.68,7.82,0.57,11.08c-0.12,3.29-0.3,6.15-0.08,8.6c0.19,2.5,0.77,4.69,1.64,6.18
				c0.41,0.76,1.02,1.42,1.35,1.68c0.43,0.36,1.1,0.7,1.79,0.84c0.68,0.16,1.36,0.15,1.78,0.06c0.41-0.12,0.52-0.17,0.7-0.29
				l1.97-1.32c2.17-1.45,4.98-1.21,6.86,0.43c0.37,0.32,0.7,0.69,0.99,1.12C242.705,295.03,242.685,297.4,241.605,299.21z"/>
			<path style="fill:#2F2FC1;" d="M224.635,206.5c-0.65,1.54-0.89,3.74-0.83,6.23c0.06,2.46,0.5,5.31,0.8,8.56
				c0.33,3.23,0.55,6.94-0.16,10.97c-0.74,4.16-2.54,8.06-4.98,11.34c-1.17,1.55-2.48,2.98-3.92,4.28c0,0.01,0,0.01-0.01,0.01
				c-2.89,0.46-5.72,0.47-8.67,0.22c5.41-2.63,10.275-5.188,13.034-12.666c3.401-9.215-0.594-17.354,1.556-25.524
				c0.42-1.58,1.02-3.17,2.17-4.33c0.79-0.8,1.9-1.36,3.01-1.42C225.885,204.39,225.235,205.06,224.635,206.5z"/>
			<path style="fill:#2F2FC1;" d="M241.605,299.21c-1.54,2.57-4.1,4.5-6.67,5.44c-2.58,0.94-5.16,1.11-7.6,0.81
				c-2.45-0.3-4.82-1.11-7.02-2.5c-1.43-0.92-2.58-1.93-3.56-3.01c2,1.49,4.42,2.44,6.9,2.82c3.31,0.52,6.72,0.09,9.93-0.86
				c1.81-0.54,3.61-1.26,5.07-2.48c1.45-1.22,2.52-3,2.53-4.89c0-0.87-0.26-1.76-0.72-2.5c0.37,0.32,0.7,0.69,0.99,1.12
				C242.705,295.03,242.685,297.4,241.605,299.21z"/>
			<path style="fill:#FFFFFF;" d="M222.12,192.945c1.767-0.809,3.669-1.323,5.603-1.513c2.021-0.199,4.305,0.063,5.633,1.599
				c0.673,0.779,0.989,2.013,0.359,2.827c-0.463,0.598-1.296,0.789-2.05,0.728c-0.754-0.062-1.473-0.33-2.215-0.481
				c-1.365-0.277-2.763-0.141-4.126,0.079c-1.178,0.19-2.567,0.743-3.761,0.479C218.675,196.025,220.501,193.755,222.12,192.945z"/>
			<path style="fill:#FFFFFF;" d="M194.608,240.959c-1.443,0.677-2.674,1.885-3.177,3.397c-0.069,0.207-0.124,0.427-0.085,0.641
				c0.039,0.214,0.196,0.421,0.411,0.454c0.314,0.048,0.553-0.256,0.754-0.502c0.364-0.446,0.838-0.804,1.374-1.013
				c0.604-0.235,1.265-0.277,1.914-0.295s1.305-0.018,1.934-0.178c1.086-0.275,2.102-1.218,1.756-2.436
				c-0.311-1.094-1.724-0.865-2.577-0.741C196.117,240.401,195.335,240.618,194.608,240.959z"/>
		</g>
		<g>
			<path style="fill:#4242CC;" d="M335.189,248.25c-0.63,3.58-3.53,6.47-7.32,6.93l-0.12,0.02c-1.6,0.19-3.35,0.77-5.03,1.95
				c-1.71,1.11-3.29,2.77-4.61,4.64c-1.3,1.89-2.32,4.04-2.9,6.19c-0.58,2.11-0.79,4.77-0.88,7.82c-0.05,1.53-0.07,3.17-0.15,4.89
				c-0.08,1.71-0.22,3.62-0.52,5.5c-0.3,1.9-0.74,3.84-1.42,5.81c-0.69,1.97-1.63,3.97-2.94,5.86c-1.32,1.89-2.91,3.61-5.22,5.1
				c-1.53,0.96-3.13,1.65-4.79,2.07c-0.73,0.2-1.47,0.34-2.22,0.43c-2.45,0.3-5.02,0.13-7.61-0.81c-2.57-0.94-5.13-2.87-6.67-5.44
				c-1.08-1.81-1.1-4.18,0.15-6.05c1.74-2.6,5.25-3.29,7.85-1.55l1.98,1.32c0.17,0.12,0.28,0.17,0.69,0.29
				c0.42,0.09,1.1,0.1,1.78-0.06c0.69-0.14,1.36-0.48,1.8-0.84c0.32-0.26,0.93-0.92,1.34-1.68c0.87-1.49,1.45-3.68,1.64-6.18
				c0.23-2.45,0.04-5.31-0.08-8.6c-0.11-3.26-0.2-6.99,0.57-11.08c0.78-4.04,2.25-7.81,4.29-11.3c1.16-1.96,2.51-3.84,4.07-5.59
				c-1.45-1.3-2.77-2.74-3.94-4.29c-2.44-3.28-4.23-7.18-4.97-11.34c-0.72-4.03-0.5-7.74-0.17-10.97c0.3-3.25,0.74-6.1,0.8-8.56
				c0.06-2.74,0.04-7.88-3.24-8.98c-1.62-0.55-3.42,1.71-5.53,1.44c-2.15-0.27-4.84-1.56-6.09-3.39c-2.35-3.44-1.47-8.14,1.96-10.49
				c2.65-1.71,5.84-2.45,8.62-2.34c2.81,0.11,5.27,0.89,7.44,2.02c0.3,0.15,0.59,0.31,0.88,0.49c1.82,1.05,3.42,2.4,4.81,4.05
				c1.67,2.02,2.69,3.99,3.44,6.04c1.47,4.11,1.72,8.02,1.63,11.52c-0.08,3.55-0.52,6.66-0.71,9.4c-0.19,2.74-0.16,5.11,0.29,6.99
				c0.26,0.88,0.52,1.72,0.99,2.53c0.4,0.83,0.98,1.59,1.61,2.31c2.51,2.93,6.62,4.5,9.7,3.99c1.91-0.1,3.72,0.45,5.21,1.46
				c1.96,1.33,3.35,3.45,3.66,5.98C335.359,246.61,335.339,247.45,335.189,248.25z"/>
			<path style="fill:#2F2FC1;" d="M335.189,248.25c-0.63,3.58-3.53,6.47-7.32,6.93l-0.12,0.02c-1.6,0.19-3.35,0.77-5.03,1.95
				c-1.71,1.11-3.29,2.77-4.61,4.64c-1.3,1.89-2.32,4.04-2.9,6.19c-0.58,2.11-0.79,4.77-0.88,7.82c-0.05,1.53-0.07,3.17-0.15,4.89
				c-0.08,1.71-0.22,3.62-0.52,5.5c-0.3,1.9-0.74,3.84-1.42,5.81c-0.69,1.97-1.63,3.97-2.94,5.86c-1.32,1.89-2.91,3.61-5.22,5.1
				c-1.53,0.96-3.13,1.65-4.79,2.07c3.6-2.11,6.46-5.56,8.28-9.37c2.42-5.11,3.2-10.83,3.55-16.47c0.32-4.94,0.34-9.96,1.76-14.7
				c1.43-4.73,4.55-9.26,9.2-10.94c1.95-0.71,4.05-0.87,6.09-1.23c2.04-0.35,4.12-0.94,5.67-2.31
				C334.399,249.52,334.859,248.92,335.189,248.25z"/>
			<path style="fill:#2F2FC1;" d="M331.599,239.77c-4.18-0.64-8.82,0.6-12.88-0.83c-4-1.41-6.76-5.27-7.89-9.36
				c-1.12-4.1-0.87-8.43-0.47-12.65c0.4-4.23,0.94-8.5,0.34-12.7c-0.68-4.73-2.84-9.23-6.07-12.75c1.82,1.05,3.42,2.4,4.81,4.05
				c1.67,2.02,2.69,3.99,3.44,6.04c1.47,4.11,1.72,8.02,1.63,11.52c-0.08,3.55-0.52,6.66-0.71,9.4c-0.19,2.74-0.16,5.11,0.29,6.99
				c0.26,0.88,0.52,1.72,0.99,2.53c0.4,0.83,0.98,1.59,1.61,2.31c2.51,2.93,6.62,4.5,9.7,3.99
				C328.299,238.21,330.109,238.76,331.599,239.77z"/>
			<path style="fill:#FFFFFF;" d="M288.431,193.784c1.747-1.41,3.949-2.245,6.191-2.35c0.901-0.042,1.845,0.042,2.619,0.507
				c0.773,0.465,1.324,1.391,1.122,2.27c-0.226,0.983-1.279,1.57-2.281,1.682c-1.002,0.112-2.008-0.125-3.015-0.165
				c-0.978-0.039-1.961,0.115-2.884,0.441c-0.7,0.247-1.323,0.585-2.093,0.468C286.12,196.338,287.551,194.494,288.431,193.784z"/>
			<path style="fill:#FFFFFF;" d="M303.476,266.241c-0.067,0.524-0.025,1.207,0.476,1.376c0.585,0.197,1.032-0.521,1.249-1.099
				c1.223-3.257,3.048-6.287,5.354-8.891c0.538-0.608,1.108-1.2,1.513-1.903c0.884-1.533,0.5-4.03-1.734-3.786
				c-1.423,0.156-1.73,1.569-2.371,2.635C305.747,258.259,304.03,261.918,303.476,266.241z"/>
		</g>
	</g>
	<g>
		<path style="fill:#EA6227;" d="M465.371,279.831c1.37,2.27,1.1,5.26-0.83,7.26l-7.7,7.94c-0.97,1-2.21,1.59-3.49,1.77l-0.12,0.01
			c-13.41,1.95-26.84,2.7-40.2,2.94c-13.37,0.23-26.68-0.06-39.93-0.58c-4.27-0.17-7.65-3.55-7.91-7.71
			c-0.02-0.28-0.02-0.56-0.01-0.85c0.1-2.64,1.43-4.95,3.43-6.38l0.19-0.14c9.99-7.02,19.86-14.17,29.43-21.6
			c7.14-5.56,14.13-11.27,20.76-17.26c-7.97-5.64-15.61-11.67-23-17.93c-9.75-8.26-19.07-16.92-28.12-25.8l-0.13-0.13
			c-3.18-3.12-3.24-8.23-0.11-11.42c1.41-1.44,3.24-2.24,5.1-2.39c13.55-1.19,27.21-1.91,40.93-1.73
			c13.72,0.19,27.53,1.26,41.17,3.96l0.15,0.03c1.29,0.25,2.41,0.91,3.24,1.81l6.42,6.95c2.25,2.44,2.09,6.24-0.34,8.48
			c-2.43,2.25-6.23,2.1-8.48-0.34l-4.94-5.35c-0.06-0.01-0.11-0.01-0.17-0.02c-12.14-1.56-24.49-1.83-36.86-1.32
			c-7.42,0.31-14.84,0.9-22.26,1.69c-0.06,0.01-0.13,0.01-0.19,0.02c4.85,4.69,9.78,9.28,14.82,13.73
			c9.21,8.12,18.76,15.8,28.77,22.66l0.06,0.04c0.65,0.45,1.21,0.99,1.66,1.59l0.01,0.01c1.93,2.52,2.1,6.1,0.19,8.84
			c-0.23,0.34-0.52,0.68-0.8,0.97c-8.91,9.07-18.38,17.33-28.05,25.24c-3.99,3.26-8.01,6.43-12.06,9.59
			c5.74,0.42,11.46,0.77,17.19,1.01c12.27,0.5,24.52,0.55,36.61-0.37l6.12-6.32c2.31-2.38,6.11-2.44,8.49-0.13
			C464.791,278.971,465.121,279.391,465.371,279.831z"/>
		<path style="fill:#C68D1C;" d="M436.911,248.611c-0.23,0.34-0.52,0.68-0.8,0.97c-8.91,9.07-18.38,17.33-28.05,25.24
			c-3.99,3.26-8.01,6.43-12.06,9.59c-4.21,0.99-8.5,1.61-12.82,2.01c12.49-7.08,23.88-16.4,35.09-25.36
			c4.24-3.39,8.47-6.77,12.7-10.16c2.14-1.71,4.35-3.51,5.48-5.99c0.73-1.59,0.86-3.54,0.27-5.14
			C438.651,242.291,438.821,245.871,436.911,248.611z"/>
		<path style="fill:#C68D1C;" d="M450.711,201.351c-12.14-1.56-24.49-1.83-36.86-1.32c-7.42,0.31-14.84,0.9-22.26,1.69
			c-3.01-1.22-5.89-2.74-8.61-4.51c19.46-2.74,39.48-2.35,58.86,0.91C444.981,198.651,448.301,199.371,450.711,201.351z"/>
		<path style="fill:#C68D1C;" d="M464.541,287.091l-7.7,7.94c-0.97,1-2.21,1.59-3.49,1.77l-0.12,0.01
			c-13.41,1.95-26.84,2.7-40.2,2.94c-13.37,0.23-26.68-0.06-39.93-0.58c-4.27-0.17-7.65-3.55-7.91-7.71
			c0.71,1.9,2.44,3.46,4.37,4.24c2.59,1.05,5.48,1,8.28,0.93c20.94-0.51,41.87-1.01,62.81-1.52c6.85-0.17,13.04-1.95,18.41-6.23
			c3.12-2.49,6.09-5.44,6.31-9.05C466.741,282.101,466.471,285.091,464.541,287.091z"/>
		<g>
			<path style="fill:#FFFFFF;" d="M371.45,191.069c1.067-0.559,2.251-0.856,3.434-1.083c3.002-0.575,6.084-0.725,9.127-0.446
				c0.728,0.067,1.594,0.264,1.838,0.953c0.173,0.487-0.068,1.046-0.46,1.383c-0.392,0.337-0.905,0.492-1.409,0.606
				c-2.168,0.49-4.42,0.367-6.639,0.489c-2.219,0.121-4.531,0.535-6.277,1.91c-0.446,0.351-1.025,0.971-1.66,0.826
				c-0.621-0.143-0.798-0.837-0.724-1.389C368.872,192.887,370.253,191.696,371.45,191.069z"/>
			<path style="fill:#FFFFFF;" d="M368.999,198.997c-0.161-0.397-0.092-0.923,0.271-1.152c0.401-0.254,0.93-0.042,1.326,0.221
				c0.923,0.614,1.663,1.499,2.103,2.516c0.104,0.24,0.187,0.535,0.037,0.75c-0.188,0.269-0.597,0.223-0.906,0.115
				c-0.65-0.228-1.246-0.606-1.733-1.093C369.714,199.97,369.202,199.498,368.999,198.997z"/>
		</g>
		<g>
			<path style="fill:#FFFFFF;" d="M398.045,264.448c-0.37,0.479,0.758,0.705,1.185,0.664c0.676-0.065,1.334-0.33,1.922-0.659
				c4.83-2.707,9.333-5.953,13.787-9.242c1.059-0.782,2.228-1.795,2.144-3.109c-0.034-0.528-0.312-1.059-0.784-1.298
				c-1.062-0.536-2.151,0.908-2.843,1.494c-1.211,1.026-2.429,2.043-3.655,3.051c-2.431,1.999-4.893,3.961-7.383,5.886
				c-1.358,1.05-2.756,2.04-4.163,3.023C398.16,264.325,398.091,264.389,398.045,264.448z"/>
			<path style="fill:#FFFFFF;" d="M391.812,269.109c-0.175,0.122-0.354,0.249-0.469,0.428c-0.115,0.18-0.15,0.427-0.029,0.603
				c0.108,0.156,0.316,0.218,0.505,0.201c0.189-0.016,0.366-0.098,0.538-0.178c0.818-0.38,1.635-0.761,2.453-1.141
				c0.357-0.166,0.719-0.336,1.01-0.601c0.29-0.265,0.502-0.646,0.469-1.038c-0.03-0.359-0.369-0.794-0.762-0.774
				c-0.389,0.02-0.854,0.503-1.159,0.717C393.515,267.921,392.663,268.515,391.812,269.109z"/>
		</g>
	</g>
	<g>
		<path style="fill:#EA6227;" d="M168.201,354.542c-0.01,0.17-0.02,0.34-0.05,0.51c-0.44,3.89-3.68,6.88-7.55,7.09
			c-4.99,0.25-9.97,0.45-14.96,0.61c-0.52,6.38-0.89,12.78-1.08,19.2c-0.31,8.97-0.24,17.97,0.02,26.97
			c0.22,9.01,0.77,18.02,1.49,27.02l0.07,0.85c0,0.06,0.01,0.17,0.01,0.18l0.02,0.06l0.02,0.12c0,0.17,0.08,0.32,0.09,0.48
			c0.1,0.3,0.24,0.58,0.4,0.86c0.35,0.52,0.81,0.98,1.37,1.28c0.26,0.18,0.56,0.26,0.86,0.36c0.11,0.04,0.22,0.07,0.33,0.09
			c0.05,0.01,0.11,0.02,0.16,0.03l0.06,0.02l0.22,0.01l0.43,0.02l0.86,0.04c2.29,0.12,4.59,0.28,6.88,0.54
			c1.88,0.21,3.54,1.05,4.79,2.3v0.01c1.68,1.66,2.61,4.05,2.32,6.58c-0.42,3.81-3.45,6.7-7.11,7.11c-2.29,0.25-4.59,0.41-6.88,0.54
			l-0.86,0.04l-0.43,0.02l-0.22,0.01h-0.37c-0.98-0.01-1.96-0.05-2.94-0.2c-1.95-0.28-3.88-0.83-5.68-1.67
			c-1.92-0.89-3.69-2.08-5.24-3.52c-1.36-1.25-2.55-2.68-3.53-4.25c-1.03-1.69-1.85-3.51-2.39-5.41c-0.24-0.96-0.48-1.92-0.59-2.9
			l-0.08-0.73l-0.05-0.37l-0.02-0.24l-0.06-0.88c-0.69-9.3-1.18-18.63-1.36-27.99c-0.16-9.36,0.01-18.74,0.51-28.11
			c0.23-4.69,0.63-9.38,1.08-14.06c0.13-1.35,0.29-2.7,0.44-4.05c-2.95,0.05-5.91,0.08-8.87,0.12l-13.43,0.04
			c-6.5-0.01-13-0.05-19.5-0.14c0.05,1.12,0.1,2.23,0.14,3.34c0.14,4.21,0.17,8.43,0.12,12.64c-0.12,8.44-0.63,16.88-1.5,25.36
			c-0.86,8.48-2.1,16.99-4.27,25.56c-1.09,4.29-2.33,8.59-4.15,12.9c-1.82,4.3-4.01,8.69-7.54,12.85
			c-2.87,3.36-7.91,3.77-11.28,0.91c-0.47-0.4-0.89-0.84-1.25-1.32c-2.05-2.76-2.12-6.61-0.04-9.47l0.22-0.3
			c1.67-2.28,3.19-5.38,4.4-8.74c1.22-3.37,2.21-7.03,3.04-10.77c0.83-3.75,1.5-7.6,2.03-11.5c0.58-3.9,1.05-7.85,1.41-11.83
			c0.75-7.95,1.09-16,1.4-24.07l0.36-12.13l0.08-3.77c-5.8-0.16-11.59-0.37-17.39-0.65c-3.14-0.15-5.77-2.1-6.94-4.8
			c-0.49-1.09-0.73-2.31-0.67-3.59c0.2-4.14,3.56-7.4,7.61-7.61c17.91-0.87,35.81-1.09,53.72-1.14l13.43,0.05
			c4.48,0.06,8.95,0.08,13.43,0.19c8.95,0.14,17.91,0.45,26.86,0.9C165.021,346.362,168.421,350.122,168.201,354.542z"/>
		<path style="fill:#C68D1C;" d="M164.961,449.772c-0.42,3.81-3.45,6.7-7.11,7.11c-2.29,0.25-4.59,0.41-6.88,0.54l-0.86,0.04
			l-0.43,0.02l-0.22,0.01h-0.37c-0.98-0.01-1.96-0.05-2.94-0.2c-1.95-0.28-3.88-0.83-5.68-1.67c-1.92-0.89-3.69-2.08-5.24-3.52
			c7.11,3.34,15.67,3.59,22.91,0.49c1.67-0.71,3.35-1.67,4.28-3.23c0.87-1.47,0.96-3.29,0.58-4.95c-0.1-0.42-0.22-0.82-0.36-1.22
			C164.321,444.852,165.251,447.242,164.961,449.772z"/>
		<path style="fill:#C68D1C;" d="M168.151,355.052c-0.44,3.89-3.68,6.88-7.55,7.09c-4.99,0.25-9.97,0.45-14.96,0.61
			c-0.52,6.38-0.89,12.78-1.08,19.2c-0.31,8.97-0.24,17.97,0.02,26.97c0.22,9.01,0.77,18.02,1.49,27.02l0.07,0.85
			c0,0.06,0.01,0.17,0.01,0.18l0.02,0.06l0.02,0.12c0,0.17,0.08,0.32,0.09,0.48c0.1,0.3,0.24,0.58,0.4,0.86
			c0.35,0.52,0.81,0.98,1.37,1.28c0.26,0.18,0.56,0.26,0.86,0.36c0.11,0.04,0.22,0.07,0.33,0.09c-1.85,0.01-3.61-0.36-4.96-1.58
			c-1.55-1.41-2.1-3.59-2.52-5.64c-4.67-22.91-2.64-46.81-1-70.14c-3.975-1.674-7.822-1.395-11.58,0.25
			c-2.95,0.05-5.91,0.08-8.87,0.12l-13.43,0.04c-6.5-0.01-13-0.05-19.5-0.14c0.05,1.12,0.1,2.23,0.14,3.34
			c0.14,4.21,0.17,8.43,0.12,12.64c-0.12,8.44-0.63,16.88-1.5,25.36c-0.86,8.48-2.1,16.99-4.27,25.56
			c-1.09,4.29-2.33,8.59-4.15,12.9c-1.82,4.3-4.01,8.69-7.54,12.85c-2.87,3.36-7.91,3.77-11.28,0.91c-0.47-0.4-0.89-0.84-1.25-1.32
			c0.73,0.55,1.58,0.92,2.5,1.03c1.93,0.24,3.86-0.67,5.27-2.01c1.41-1.34,2.38-3.07,3.27-4.81c6.69-13.08,10.02-27.67,11.45-42.3
			c1.43-14.5,1.09-29.71,0.69-44.28c-3.307-1.693-6.739-1.691-10.28-0.21c-5.8-0.16-11.59-0.37-17.39-0.65
			c-3.14-0.15-5.77-2.1-6.94-4.8c0.52,0.45,1.11,0.81,1.73,1.06c1.76,0.7,3.7,0.72,5.59,0.73c33.81,0.09,67.62,0.19,101.43,0.28
			c2.99,0.01,6.06,0,8.85-1.07C165.521,357.682,167.111,356.522,168.151,355.052z"/>
		<g>
			<path style="fill:#FFFFFF;" d="M114.022,346.655c0.822-0.004,1.666-0.006,2.434,0.201c0.768,0.207,1.454,0.671,1.53,1.249
				c0.085,0.648-0.624,1.242-1.469,1.504c-0.844,0.262-1.798,0.265-2.72,0.264c-6.208-0.008-12.416-0.016-18.623-0.023
				c-3.505-0.004-7.011-0.009-10.514-0.097c-1.979-0.05-3.961-0.042-5.938-0.14c-0.881-0.044-5.852,0.023-5.131-1.217
				c0.223-0.383,0.925-0.676,1.467-0.779c3.114-0.592,6.238-0.594,9.433-0.646c6.363-0.102,12.727-0.183,19.092-0.24
				C107.064,346.698,110.543,346.673,114.022,346.655z"/>
			<path style="fill:#FFFFFF;" d="M64.446,349.798c-0.795-0.036-1.65-0.226-1.494-0.999c0.081-0.397,0.538-0.577,0.933-0.673
				c1.672-0.408,3.42-0.513,5.134-0.31c0.512,0.06,1.089,0.194,1.342,0.642c0.421,0.745-0.263,1.249-0.938,1.248
				c-1.299-0.001-2.597,0.072-3.897,0.083C65.306,349.79,64.885,349.818,64.446,349.798z"/>
		</g>
		<path style="fill:#FFFFFF;" d="M74.434,384.201c0.192,0.475,0.179,1.004,0.163,1.515c-0.241,7.655-0.499,15.418-2.75,22.74
			c-0.146,0.476-0.412,1.039-0.91,1.056c-0.691,0.025-0.873-0.942-0.812-1.63c0.448-5.093,0.897-10.186,1.345-15.279
			c0.204-2.313,0.465-4.621,0.47-6.938C71.943,384.395,73.533,381.976,74.434,384.201z"/>
		<path style="fill:#FFFFFF;" d="M130.605,400c0.519,0.045,0.935,0.488,1.108,0.98c0.174,0.492,0.154,1.027,0.132,1.548
			c-0.319,7.566-0.638,15.132-0.957,22.698c-0.018,0.42-0.046,0.87-0.305,1.201c-0.259,0.331-0.839,0.436-1.081,0.092
			c-0.435-5.011-0.663-10.04-0.686-15.07C128.809,409.953,128.014,399.776,130.605,400z"/>
	</g>
	<g>
		<g>
			<path style="fill:#F2A51A;" d="M259.601,367.792c-0.11-3.31-0.86-6.62-2.24-9.6c-0.3-0.66-0.64-1.31-1-1.93
				c-1.27-2.22-2.87-4.23-4.73-5.92c-4.75-4.37-11.22-6.63-17.44-6.4c-6.23,0.22-12.31,2.83-16.64,7.21
				c-4.39,4.31-7,10.43-7.13,16.64c-0.13,4.82,1.25,9.75,3.94,13.9c0.75,1.18,1.62,2.3,2.59,3.34c4.3,4.7,10.66,7.68,17.24,7.89
				c3.27,0.1,6.62-0.43,9.74-1.63c3.11-1.2,5.99-3.03,8.42-5.35c2.43-2.31,4.33-5.19,5.57-8.32
				C259.141,374.482,259.701,371.092,259.601,367.792z M241.421,358.832c0.29,0.29,0.57,0.59,0.82,0.9
				c1.91,2.35,2.79,5.25,2.59,8.06c-0.21,2.83-1.51,5.29-3.3,7.34c-1.84,2.04-4.45,3.35-7.34,3.58c-2.88,0.24-5.89-0.66-8.25-2.67
				c-1.93-1.63-3.32-3.94-3.82-6.51c-0.01-0.01-0.01-0.02-0.01-0.03c-0.12-0.56-0.19-1.13-0.21-1.71c-0.05-1.62,0.18-3.25,0.78-4.77
				c0.6-1.51,1.5-2.92,2.65-4.09c2.34-2.33,5.63-3.6,8.86-3.36c2.81,0.18,5.35,1.42,7.22,3.25
				C241.421,358.823,241.421,358.832,241.421,358.832z"/>
			<path style="fill:#FFCB4A;" d="M257.921,377.622c-1.24,3.13-3.14,6.01-5.57,8.32c-2.43,2.32-5.31,4.15-8.42,5.35
				c-3.12,1.2-6.47,1.73-9.74,1.63c-6.58-0.21-12.94-3.19-17.24-7.89c-0.97-1.04-1.84-2.16-2.59-3.34
				c2.88,2.63,6.69,4.37,10.48,5.47c4.27,1.24,8.78,1.87,13.17,1.15c8.19-1.33,15.27-7.54,18.1-15.34
				c1.94-5.33,1.92-11.27,0.25-16.71c0.36,0.62,0.7,1.27,1,1.93c1.38,2.98,2.13,6.29,2.24,9.6
				C259.701,371.092,259.141,374.482,257.921,377.622z"/>
			<path style="fill:#FFCB4A;" d="M241.411,358.823c-1.87-1.83-4.41-3.07-7.22-3.25c-3.23-0.24-6.52,1.03-8.86,3.36
				c-1.15,1.17-2.05,2.58-2.65,4.09c-0.6,1.52-0.83,3.15-0.78,4.77c0.02,0.58,0.09,1.15,0.21,1.71c-0.61-1.39-1.13-2.81-1.34-4.28
				c-0.4-2.68-0.1-5.54,1.36-7.82c1.45-2.29,4-3.79,6.68-4.21c2.68-0.42,5.46,0.2,7.85,1.49
				C238.581,355.712,240.081,357.162,241.411,358.823z"/>
			<g>
				<path style="fill:#FFFFFF;" d="M221.79,349.937c3.177-2.279,6.949-3.72,10.835-4.14c1.658-0.179,3.507-0.116,4.75,0.996
					c0.412,0.369,0.741,0.858,0.809,1.407c0.069,0.548-0.166,1.152-0.648,1.422c-0.383,0.215-0.847,0.198-1.286,0.184
					c-2.678-0.084-5.365,0.17-7.981,0.745c-1.361,0.299-2.704,0.685-4.016,1.156c-0.882,0.316-2.107,1.094-3.065,0.597
					C219.96,351.668,221.063,350.459,221.79,349.937z"/>
				<path style="fill:#FFFFFF;" d="M216.15,356.093c-0.094,0.232-0.177,0.478-0.156,0.727c0.021,0.249,0.172,0.503,0.412,0.574
					c0.318,0.094,0.629-0.147,0.873-0.371c0.324-0.297,0.648-0.595,0.971-0.892c0.346-0.318,0.71-0.667,0.807-1.126
					c0.161-0.767-0.66-1.721-1.4-1.17C216.975,354.345,216.464,355.322,216.15,356.093z"/>
			</g>
			<path style="fill:#FFFFFF;" d="M238.793,380.161c2.111-0.895,3.934-2.454,5.146-4.401c0.176-0.283,0.346-0.58,0.609-0.784
				c0.263-0.204,0.652-0.288,0.929-0.104c0.366,0.244,0.348,0.783,0.256,1.213c-0.559,2.592-2.383,4.861-4.756,6.044
				c-1.974,0.984-4.289,1.219-6.436,0.74c-0.567-0.126-2.361-0.418-2.091-1.263c0.289-0.903,1.975-0.541,2.626-0.58
				C236.353,380.952,237.616,380.66,238.793,380.161z"/>
		</g>
		<g>
			<path style="fill:#F2A51A;" d="M335.177,432.351c-0.11-3.31-0.86-6.62-2.24-9.6c-0.3-0.66-0.64-1.31-1-1.93
				c-1.27-2.22-2.87-4.23-4.73-5.92c-4.75-4.37-11.22-6.63-17.44-6.4c-6.23,0.22-12.31,2.83-16.64,7.21
				c-4.39,4.31-7,10.43-7.13,16.64c-0.13,4.82,1.25,9.75,3.94,13.9c0.75,1.18,1.62,2.3,2.59,3.34c4.3,4.7,10.66,7.68,17.24,7.89
				c3.27,0.1,6.62-0.43,9.74-1.63c3.11-1.2,5.99-3.03,8.42-5.35c2.43-2.31,4.33-5.19,5.57-8.32
				C334.717,439.041,335.277,435.651,335.177,432.351z M316.997,423.391c0.29,0.29,0.57,0.59,0.82,0.9
				c1.91,2.35,2.79,5.25,2.59,8.06c-0.21,2.83-1.51,5.29-3.3,7.34c-1.84,2.04-4.45,3.35-7.34,3.58c-2.88,0.24-5.89-0.66-8.25-2.67
				c-1.93-1.63-3.32-3.94-3.82-6.51c-0.01-0.01-0.01-0.02-0.01-0.03c-0.12-0.56-0.19-1.13-0.21-1.71c-0.05-1.62,0.18-3.25,0.78-4.77
				c0.6-1.51,1.5-2.92,2.65-4.09c2.34-2.33,5.63-3.6,8.86-3.36c2.81,0.18,5.35,1.42,7.22,3.25
				C316.997,423.381,316.997,423.391,316.997,423.391z"/>
			<path style="fill:#FFCB4A;" d="M333.497,442.181c-1.24,3.13-3.14,6.01-5.57,8.32c-2.43,2.32-5.31,4.15-8.42,5.35
				c-3.12,1.2-6.47,1.73-9.74,1.63c-6.58-0.21-12.94-3.19-17.24-7.89c-0.97-1.04-1.84-2.16-2.59-3.34
				c2.88,2.63,6.69,4.37,10.48,5.47c4.27,1.24,8.78,1.87,13.17,1.15c8.19-1.33,15.27-7.54,18.1-15.34
				c1.94-5.33,1.92-11.27,0.25-16.71c0.36,0.62,0.7,1.27,1,1.93c1.38,2.98,2.13,6.29,2.24,9.6
				C335.277,435.651,334.717,439.041,333.497,442.181z"/>
			<path style="fill:#FFCB4A;" d="M316.987,423.381c-1.87-1.83-4.41-3.07-7.22-3.25c-3.23-0.24-6.52,1.03-8.86,3.36
				c-1.15,1.17-2.05,2.58-2.65,4.09c-0.6,1.52-0.83,3.15-0.78,4.77c0.02,0.58,0.09,1.15,0.21,1.71c-0.61-1.39-1.13-2.81-1.34-4.28
				c-0.4-2.68-0.1-5.54,1.36-7.82c1.45-2.29,4-3.79,6.68-4.21c2.68-0.42,5.46,0.2,7.85,1.49
				C314.157,420.271,315.657,421.72,316.987,423.381z"/>
			<g>
				<path style="fill:#FFFFFF;" d="M297.367,414.495c3.177-2.279,6.949-3.72,10.835-4.14c1.658-0.179,3.507-0.116,4.75,0.996
					c0.412,0.368,0.741,0.858,0.809,1.407c0.069,0.549-0.166,1.152-0.648,1.422c-0.383,0.215-0.847,0.198-1.286,0.184
					c-2.678-0.084-5.365,0.17-7.981,0.745c-1.362,0.299-2.704,0.685-4.016,1.156c-0.882,0.316-2.107,1.094-3.065,0.597
					C295.536,416.226,296.639,415.017,297.367,414.495z"/>
				<path style="fill:#FFFFFF;" d="M291.727,420.651c-0.094,0.232-0.177,0.478-0.155,0.727c0.021,0.249,0.172,0.503,0.412,0.574
					c0.318,0.095,0.629-0.147,0.873-0.371c0.324-0.297,0.648-0.595,0.971-0.892c0.346-0.318,0.71-0.667,0.807-1.127
					c0.161-0.767-0.66-1.721-1.4-1.17C292.551,418.903,292.04,419.88,291.727,420.651z"/>
			</g>
			<path style="fill:#FFFFFF;" d="M314.37,444.719c2.111-0.895,3.934-2.454,5.146-4.401c0.176-0.283,0.346-0.58,0.609-0.784
				c0.263-0.204,0.652-0.288,0.929-0.104c0.366,0.244,0.349,0.783,0.256,1.213c-0.559,2.592-2.383,4.861-4.756,6.044
				c-1.974,0.984-4.289,1.219-6.435,0.74c-0.567-0.126-2.361-0.418-2.091-1.263c0.289-0.903,1.975-0.541,2.626-0.58
				C311.929,445.51,313.193,445.219,314.37,444.719z"/>
		</g>
		<g>
			<path style="fill:#F2A51A;" d="M322.961,353.573c-1.45,2.74-2.95,5.45-4.54,8.11c-1.63,2.63-3.28,5.25-5,7.82
				c-1.75,2.55-3.52,5.09-5.34,7.59c-1.87,2.45-3.72,4.94-5.66,7.34c-7.72,9.66-16.2,18.67-25.15,27.14
				c-8.95,8.48-18.36,16.43-28.2,23.79c-9.84,7.33-20.05,14.16-30.83,20.05c-3.15,1.73-7.1,0.57-8.82-2.58
				c-0.09-0.16-0.17-0.32-0.23-0.48c-1.13-2.51-0.53-5.42,1.39-7.29l0.02-0.02c8.63-8.41,17.45-16.42,26.14-24.51
				c8.7-8.07,17.33-16.14,25.8-24.34c8.47-8.2,16.78-16.52,25.07-24.9l12.41-12.65c2.05-2.12,4.11-4.26,6.22-6.36
				c2.06-2.14,4.16-4.25,6.34-6.33l0.14-0.14c2.04-1.95,5.02-2.3,7.4-1.1c0.66,0.32,1.27,0.76,1.8,1.32
				C323.901,348.112,324.231,351.162,322.961,353.573z"/>
			<path style="fill:#FFCB4A;" d="M322.961,353.573c-1.45,2.74-2.95,5.45-4.54,8.11c-1.63,2.63-3.28,5.25-5,7.82
				c-1.75,2.55-3.52,5.09-5.34,7.59c-1.87,2.45-3.72,4.94-5.66,7.34c-7.72,9.66-16.2,18.67-25.15,27.14
				c-8.95,8.48-18.36,16.43-28.2,23.79c-9.84,7.33-20.05,14.16-30.83,20.05c-3.15,1.73-7.1,0.57-8.82-2.58
				c-0.09-0.16-0.17-0.32-0.23-0.48c0.95,0.63,2.16,0.93,3.29,0.81c2.16-0.22,4.03-1.52,5.79-2.78
				c36.76-26.49,70.33-57.48,99.06-92.52c2.16-2.63,4.4-5.57,4.45-8.98c0.02-1.51-0.64-3.04-1.66-4.17c0.66,0.32,1.27,0.76,1.8,1.32
				C323.901,348.112,324.231,351.162,322.961,353.573z"/>
			<path style="fill:#FFFFFF;" d="M259.596,402.695c3.438-2.947,6.804-5.981,10.054-9.134c1.625-1.576,3.221-3.183,4.783-4.823
				c1.144-1.201,2.323-3.134,4.092-3.423c0.165-0.027,0.333-0.038,0.5-0.029c0.238,0.013,0.458,0.074,0.673,0.174
				c0.031,0.015,0.061,0.031,0.091,0.049c0.795,0.477,0.939,1.595,0.71,2.493c-0.466,1.832-2.007,3.159-3.465,4.362
				c-4.645,3.829-9.289,7.659-13.934,11.489c-1.429,1.178-2.842,2.374-4.27,3.554c-0.903,0.746-1.627,1.683-2.624,2.324
				c-0.392,0.252-0.978,0.616-1.467,0.429c-0.916-0.351-0.431-1.7-0.077-2.304C255.867,405.801,257.785,404.248,259.596,402.695z"/>
		</g>
	</g>
	<g>
		<path style="fill:#4242CC;" d="M126.588,81.323L97.107,81.02c0.329-8.349,0.723-16.697,1.251-25.044
			c1.088-17.208-25.693-17.142-26.777,0c-0.522,8.254-0.914,16.51-1.242,24.768l-26.825-0.276c-17.236-0.177-17.249,26.599,0,26.777
			l26.12,0.269c-0.146,10.275-0.193,20.553-0.04,30.838c0.257,17.215,27.034,17.266,26.777,0
			c-0.152-10.192-0.107-20.379,0.035-30.562l30.18,0.311C143.824,108.278,143.837,81.501,126.588,81.323z"/>
		<g>
			<path style="fill:#2F2FC1;" d="M30.584,93.727c-0.001,6.693,4.308,13.429,12.931,13.518l26.086,0.269
				c-0.024-2.641-0.125-5.285-0.463-7.896c-0.452-3.495-4.611-2.226-7.126-2.075c-7.291,0.44-15.045,1.613-22.304,0.356
				C36.55,97.353,32.752,96.261,30.584,93.727z"/>
			<path style="fill:#2F2FC1;" d="M126.588,81.323l-2.053-0.021c2.786,1.88,4.586,5.117,4.363,8.551
				c-0.298,4.594-3.675,7.951-7.992,9.064c-4.77,1.23-10.106,0.873-14.994,0.945c-5.375,0.08-10.749,0.06-16.123-0.048
				c-0.776-0.016-1.268,0.63-1.339,1.339c-0.557,5.604-0.874,11.229-0.92,16.861c-0.043,5.316,0.433,10.823-0.956,16.018
				c-1.16,4.337-4.115,8.665-8.642,9.947c-2.39,0.677-4.47-0.142-6.833-0.451c-0.158-0.02-0.309-0.005-0.466-0.017
				c4.934,11.833,25.968,10.156,25.739-5.161c-0.152-10.193-0.107-20.379,0.036-30.562l30.18,0.31
				C143.824,108.278,143.837,81.501,126.588,81.323z"/>
			<path style="fill:#2F2FC1;" d="M86.773,47.133c2.425,4.039,1.931,9.842,2.026,14.359c0.119,5.59-0.113,11.146-0.297,16.729
				c-0.028,0.856-0.118,1.757,0.586,2.4c0.694,0.634,1.814,0.478,2.676,0.476c2.776-0.003,5.551-0.007,8.327-0.01
				c0.063,0,0.109-0.024,0.165-0.034l-3.149-0.033c0.329-8.349,0.723-16.697,1.251-25.043c0.64-10.12-8.357-14.258-16.099-12.47
				C84.084,44.245,85.702,45.349,86.773,47.133z"/>
		</g>
		<g>
			<g>
				<path style="fill:#FFFFFF;" d="M75.699,55.296c-0.631,3.404-0.779,6.857-0.438,10.247c0.035,0.345,0.088,0.706,0.174,1.057
					c0.303,1.245,2.339,1.192,2.745-0.065c0.311-0.96,0.549-1.937,0.938-2.826c0.452-1.541,0.896-3.05,1.349-4.591
					c0.3-2.063,2.457-5.655,1.981-8.144c-0.365-1.913-2.453-2.265-4.084-1.057C76.61,51.216,76.045,53.43,75.699,55.296z"/>
				<path style="fill:#FFFFFF;" d="M75.994,76.389c0.058,0.241,0.122,0.487,0.252,0.694c0.13,0.206,0.342,0.368,0.56,0.356
					c0.33-0.019,0.522-0.396,0.639-0.736c0.404-1.168,0.595-2.441,0.558-3.72c-0.016-0.542-0.075-1.096-0.274-1.603
					c-0.199-0.507-0.556-0.964-1.017-1.156C74.15,69.156,75.717,75.238,75.994,76.389z"/>
			</g>
			<path style="fill:#FFFFFF;" d="M39.112,84.409c3.055-0.647,6.325-0.399,9.536-0.147c2.166,0.17,4.375,0.349,6.436,1.131
				c0.646,0.245,1.392,0.741,1.282,1.346c-0.113,0.623-0.997,0.723-1.694,0.717c-2.899-0.024-5.763,0.344-8.472,1.09
				c-1.427,0.393-2.833,0.893-4.351,0.956c-1.387,0.058-4.317-0.561-5.208-1.867C35.466,85.914,37.667,84.715,39.112,84.409z"/>
		</g>
	</g>
</g>
</svg>
